<mxfile host="app.diagrams.net" modified="2021-06-21T05:02:36.246Z" agent="5.0 (X11; Linux x86_64) AppleWebKit/537.36 (KHTML, like Gecko) Chrome/91.0.4472.77 Safari/537.36" etag="K2GQlIpRJQPUO46xZBG3" version="14.8.0" type="github">
  <diagram name="Page-1" id="aaaa8250-4180-3840-79b5-4cada1eebb92">
    <mxGraphModel dx="2856" dy="1066" grid="1" gridSize="10" guides="1" tooltips="1" connect="1" arrows="1" fold="1" page="0" pageScale="1" pageWidth="850" pageHeight="1100" background="none" math="0" shadow="0">
      <root>
        <mxCell id="0" />
        <mxCell id="1" parent="0" />
        <mxCell id="d5ac148becb70bc-7" value="" style="verticalLabelPosition=bottom;html=1;verticalAlign=top;strokeWidth=1;dashed=0;shape=mxgraph.aws3d.flatDoubleEdge;fillColor=#000000;aspect=fixed;rounded=1;shadow=0;comic=0;fontFamily=Verdana;fontSize=12;flipV=1;" parent="1" vertex="1">
          <mxGeometry x="778.24" y="710.5" width="619.95" height="353.5" as="geometry" />
        </mxCell>
        <mxCell id="1a8abee3a6cfdf20-38" value="" style="verticalLabelPosition=bottom;html=1;verticalAlign=top;strokeWidth=1;dashed=0;shape=mxgraph.aws3d.flatDoubleEdge;fillColor=#000000;aspect=fixed;rounded=1;shadow=0;comic=0;fontFamily=Verdana;fontSize=12;flipV=1;" parent="1" vertex="1">
          <mxGeometry x="1129.24" y="880" width="626" height="357" as="geometry" />
        </mxCell>
        <mxCell id="1a8abee3a6cfdf20-28" value="" style="verticalLabelPosition=bottom;html=1;verticalAlign=top;strokeWidth=1;dashed=0;shape=mxgraph.aws3d.flatDoubleEdge;fillColor=#000000;aspect=fixed;rounded=1;shadow=0;comic=0;fontFamily=Verdana;fontSize=12;flipV=1;" parent="1" vertex="1">
          <mxGeometry x="519.24" y="550" width="610.19" height="348" as="geometry" />
        </mxCell>
        <mxCell id="1a8abee3a6cfdf20-3" value="" style="edgeStyle=isometricEdgeStyle;endArrow=none;html=1;labelBackgroundColor=none;strokeWidth=5;fontFamily=Verdana;fontSize=12" parent="1" edge="1">
          <mxGeometry width="50" height="100" relative="1" as="geometry">
            <mxPoint x="611.24" y="1138" as="sourcePoint" />
            <mxPoint x="521.24" y="898" as="targetPoint" />
            <Array as="points">
              <mxPoint x="561.24" y="1038" />
            </Array>
          </mxGeometry>
        </mxCell>
        <mxCell id="1a8abee3a6cfdf20-5" value="" style="edgeStyle=isometricEdgeStyle;endArrow=none;html=1;labelBackgroundColor=none;strokeColor=#000000;strokeWidth=5;fontFamily=Verdana;fontSize=12" parent="1" edge="1">
          <mxGeometry width="50" height="100" relative="1" as="geometry">
            <mxPoint x="681.24" y="1168" as="sourcePoint" />
            <mxPoint x="1139.24" y="1240" as="targetPoint" />
            <Array as="points">
              <mxPoint x="869.24" y="1210" />
            </Array>
          </mxGeometry>
        </mxCell>
        <mxCell id="1a8abee3a6cfdf20-18" value="" style="verticalLabelPosition=bottom;html=1;verticalAlign=top;strokeWidth=1;dashed=0;shape=mxgraph.aws3d.application_server;fillColor=#ECECEC;strokeColor=#5E5E5E;aspect=fixed;rounded=1;shadow=0;comic=0;fontSize=12" parent="1" vertex="1">
          <mxGeometry x="1210" y="1030" width="161.69" height="163" as="geometry" />
        </mxCell>
        <mxCell id="1a8abee3a6cfdf20-25" value="" style="verticalLabelPosition=bottom;html=1;verticalAlign=top;strokeWidth=1;dashed=0;shape=mxgraph.aws3d.arrowhead;aspect=fixed;rounded=1;shadow=0;comic=0;fillColor=none;fontFamily=Verdana;fontSize=12;fontColor=#000000;flipV=1;" parent="1" vertex="1">
          <mxGeometry x="600.24" y="1121" width="39" height="23" as="geometry" />
        </mxCell>
        <mxCell id="1a8abee3a6cfdf20-27" value="" style="verticalLabelPosition=bottom;html=1;verticalAlign=top;strokeWidth=1;dashed=0;shape=mxgraph.aws3d.arrowhead;aspect=fixed;rounded=1;shadow=0;comic=0;fillColor=none;fontFamily=Verdana;fontSize=12;fontColor=#000000;flipV=1;" parent="1" vertex="1">
          <mxGeometry x="654" y="1162" width="39" height="23" as="geometry" />
        </mxCell>
        <mxCell id="d5ac148becb70bc-8" value="" style="verticalLabelPosition=bottom;html=1;verticalAlign=top;strokeWidth=1;dashed=0;shape=mxgraph.aws3d.dashedArrowlessEdge;aspect=fixed;rounded=1;shadow=0;comic=0;fontFamily=Verdana;fontSize=12" parent="1" vertex="1">
          <mxGeometry x="1060" y="450" width="895" height="510" as="geometry" />
        </mxCell>
        <mxCell id="d5ac148becb70bc-9" value="" style="verticalLabelPosition=bottom;html=1;verticalAlign=top;strokeWidth=1;dashed=0;shape=mxgraph.aws3d.dashedArrowlessEdge;aspect=fixed;rounded=1;shadow=0;comic=0;fontFamily=Verdana;fontSize=12" parent="1" vertex="1">
          <mxGeometry x="-150" y="1120" width="912.55" height="520" as="geometry" />
        </mxCell>
        <mxCell id="d5ac148becb70bc-10" value="" style="verticalLabelPosition=bottom;html=1;verticalAlign=top;strokeWidth=1;dashed=0;shape=mxgraph.aws3d.dashedArrowlessEdge;fillColor=#000000;aspect=fixed;rounded=1;shadow=0;comic=0;fontFamily=Verdana;fontSize=12;fontColor=#000000;flipV=1;" parent="1" vertex="1">
          <mxGeometry x="-150" y="440" width="1196.03" height="680" as="geometry" />
        </mxCell>
        <mxCell id="d5ac148becb70bc-12" value="" style="verticalLabelPosition=bottom;html=1;verticalAlign=top;strokeWidth=1;dashed=0;shape=mxgraph.aws3d.dashedArrowlessEdge;aspect=fixed;rounded=1;shadow=0;comic=0;fontFamily=Verdana;fontSize=12;flipV=1;" parent="1" vertex="1">
          <mxGeometry x="780" y="960" width="1175" height="670.08" as="geometry" />
        </mxCell>
        <mxCell id="A5O7at4TS7hZfqdvSWaj-5" value="" style="verticalLabelPosition=bottom;html=1;verticalAlign=top;strokeWidth=1;align=center;outlineConnect=0;dashed=0;outlineConnect=0;shape=mxgraph.aws3d.elasticLoadBalancing;fillColor=#ECECEC;strokeColor=#5E5E5E;aspect=fixed;" vertex="1" parent="1">
          <mxGeometry x="-60" y="1510" width="140" height="134.17" as="geometry" />
        </mxCell>
        <mxCell id="A5O7at4TS7hZfqdvSWaj-6" value="" style="verticalLabelPosition=bottom;html=1;verticalAlign=top;strokeWidth=1;align=center;outlineConnect=0;dashed=0;outlineConnect=0;shape=mxgraph.aws3d.route53;fillColor=#ECECEC;strokeColor=#5E5E5E;aspect=fixed;" vertex="1" parent="1">
          <mxGeometry x="322.83" y="1770" width="117.17" height="134.4" as="geometry" />
        </mxCell>
        <mxCell id="A5O7at4TS7hZfqdvSWaj-8" value="" style="verticalLabelPosition=bottom;html=1;verticalAlign=top;strokeWidth=1;align=center;outlineConnect=0;dashed=0;outlineConnect=0;shape=mxgraph.aws3d.vpcGateway;fillColor=#ECECEC;strokeColor=#5E5E5E;aspect=fixed;" vertex="1" parent="1">
          <mxGeometry x="263.29999999999995" y="1320" width="116.7" height="102.8" as="geometry" />
        </mxCell>
        <mxCell id="A5O7at4TS7hZfqdvSWaj-9" value="" style="verticalLabelPosition=bottom;html=1;verticalAlign=top;strokeWidth=3;align=center;outlineConnect=0;dashed=0;outlineConnect=0;shape=mxgraph.aws3d.arrowNE;fillColor=#000000;aspect=fixed;" vertex="1" parent="1">
          <mxGeometry x="90" y="1420" width="210" height="120" as="geometry" />
        </mxCell>
        <mxCell id="A5O7at4TS7hZfqdvSWaj-10" value="" style="verticalLabelPosition=bottom;html=1;verticalAlign=top;strokeWidth=2;align=center;outlineConnect=0;dashed=0;outlineConnect=0;shape=mxgraph.aws3d.arrowNW;fillColor=#000000;aspect=fixed;" vertex="1" parent="1">
          <mxGeometry x="80" y="1660" width="227.5" height="130" as="geometry" />
        </mxCell>
        <mxCell id="A5O7at4TS7hZfqdvSWaj-11" value="" style="verticalLabelPosition=bottom;html=1;verticalAlign=top;strokeWidth=1;align=center;outlineConnect=0;dashed=0;outlineConnect=0;shape=mxgraph.aws3d.secureConnection;fillColor=#000000;strokeColor=#ffffff;aspect=fixed;" vertex="1" parent="1">
          <mxGeometry x="137" y="1690" width="113" height="67.4" as="geometry" />
        </mxCell>
        <mxCell id="A5O7at4TS7hZfqdvSWaj-12" value="" style="verticalLabelPosition=bottom;html=1;verticalAlign=top;strokeWidth=1;align=center;outlineConnect=0;dashed=0;outlineConnect=0;shape=mxgraph.aws3d.end_user;strokeColor=none;aspect=fixed;fillColor=#000000;" vertex="1" parent="1">
          <mxGeometry x="86.01" y="1904.4" width="79.99" height="164" as="geometry" />
        </mxCell>
        <mxCell id="A5O7at4TS7hZfqdvSWaj-13" value="" style="verticalLabelPosition=bottom;html=1;verticalAlign=top;strokeWidth=2;align=center;outlineConnect=0;dashed=0;outlineConnect=0;shape=mxgraph.aws3d.arrowNE;fillColor=#000000;aspect=fixed;" vertex="1" parent="1">
          <mxGeometry x="166" y="1890" width="175" height="100" as="geometry" />
        </mxCell>
        <mxCell id="A5O7at4TS7hZfqdvSWaj-14" value="" style="verticalLabelPosition=bottom;html=1;verticalAlign=top;strokeWidth=1;align=center;outlineConnect=0;dashed=0;outlineConnect=0;shape=mxgraph.aws3d.dynamoDb;fillColor=#ECECEC;aspect=fixed;strokeColor=#0066CC;" vertex="1" parent="1">
          <mxGeometry x="970" y="750" width="187.55" height="217" as="geometry" />
        </mxCell>
        <mxCell id="A5O7at4TS7hZfqdvSWaj-15" value="&lt;b&gt;&lt;font style=&quot;font-size: 30px&quot;&gt;USER&lt;/font&gt;&lt;/b&gt;" style="text;html=1;strokeColor=none;fillColor=none;align=center;verticalAlign=middle;whiteSpace=wrap;rounded=0;rotation=-30;" vertex="1" parent="1">
          <mxGeometry x="190" y="2010" width="120" height="70" as="geometry" />
        </mxCell>
        <mxCell id="A5O7at4TS7hZfqdvSWaj-16" value="&lt;b&gt;&lt;font style=&quot;font-size: 30px&quot;&gt;TERMINATE TLS AT NLB&lt;/font&gt;&lt;/b&gt;" style="text;html=1;strokeColor=none;fillColor=none;align=center;verticalAlign=middle;whiteSpace=wrap;rounded=0;rotation=30;" vertex="1" parent="1">
          <mxGeometry x="130" y="1600" width="430" height="70" as="geometry" />
        </mxCell>
        <mxCell id="A5O7at4TS7hZfqdvSWaj-17" value="&lt;b&gt;&lt;font style=&quot;font-size: 30px&quot;&gt;AWS NLB&lt;/font&gt;&lt;/b&gt;" style="text;html=1;strokeColor=none;fillColor=none;align=center;verticalAlign=middle;whiteSpace=wrap;rounded=0;rotation=-30;" vertex="1" parent="1">
          <mxGeometry x="-306.7" y="1470" width="436.7" height="60" as="geometry" />
        </mxCell>
        <mxCell id="A5O7at4TS7hZfqdvSWaj-19" value="&lt;b&gt;&lt;font style=&quot;font-size: 30px&quot;&gt;VPC INTERNET GATEWAY&lt;/font&gt;&lt;/b&gt;" style="text;html=1;strokeColor=none;fillColor=none;align=center;verticalAlign=middle;whiteSpace=wrap;rounded=0;rotation=30;" vertex="1" parent="1">
          <mxGeometry x="-110" y="1170" width="430" height="70" as="geometry" />
        </mxCell>
        <mxCell id="A5O7at4TS7hZfqdvSWaj-20" value="" style="verticalLabelPosition=bottom;html=1;verticalAlign=top;strokeWidth=1;align=center;outlineConnect=0;dashed=0;outlineConnect=0;shape=mxgraph.aws3d.application2;fillColor=#86E83A;strokeColor=#B0F373;aspect=fixed;" vertex="1" parent="1">
          <mxGeometry x="495.81" y="1150" width="140.38" height="120" as="geometry" />
        </mxCell>
        <mxCell id="A5O7at4TS7hZfqdvSWaj-21" value="" style="verticalLabelPosition=bottom;html=1;verticalAlign=top;strokeWidth=3;align=center;outlineConnect=0;dashed=0;outlineConnect=0;shape=mxgraph.aws3d.arrowNE;fillColor=#000000;aspect=fixed;" vertex="1" parent="1">
          <mxGeometry x="370" y="1266" width="140" height="80" as="geometry" />
        </mxCell>
        <mxCell id="A5O7at4TS7hZfqdvSWaj-22" value="&lt;span style=&quot;font-size: 30px&quot;&gt;&lt;b&gt;INGRESS&lt;/b&gt;&lt;/span&gt;" style="text;html=1;strokeColor=none;fillColor=none;align=center;verticalAlign=middle;whiteSpace=wrap;rounded=0;rotation=30;" vertex="1" parent="1">
          <mxGeometry x="458.5" y="1266" width="430" height="70" as="geometry" />
        </mxCell>
        <mxCell id="A5O7at4TS7hZfqdvSWaj-23" value="&lt;span style=&quot;font-size: 30px&quot;&gt;&lt;b&gt;AZ 2&lt;/b&gt;&lt;/span&gt;" style="text;html=1;strokeColor=none;fillColor=none;align=center;verticalAlign=middle;whiteSpace=wrap;rounded=0;rotation=-31;" vertex="1" parent="1">
          <mxGeometry x="1572.24" y="920" width="130" height="70" as="geometry" />
        </mxCell>
        <mxCell id="A5O7at4TS7hZfqdvSWaj-24" value="&lt;span style=&quot;font-size: 30px&quot;&gt;&lt;b&gt;AZ 1&lt;/b&gt;&lt;/span&gt;" style="text;html=1;strokeColor=none;fillColor=none;align=center;verticalAlign=middle;whiteSpace=wrap;rounded=0;rotation=-28;" vertex="1" parent="1">
          <mxGeometry x="940" y="580" width="160" height="70" as="geometry" />
        </mxCell>
        <mxCell id="A5O7at4TS7hZfqdvSWaj-25" value="&lt;span style=&quot;font-size: 30px&quot;&gt;&lt;b&gt;RDS&lt;/b&gt;&lt;/span&gt;" style="text;html=1;strokeColor=none;fillColor=none;align=center;verticalAlign=middle;whiteSpace=wrap;rounded=0;rotation=-28;" vertex="1" parent="1">
          <mxGeometry x="980" y="994" width="140" height="70" as="geometry" />
        </mxCell>
        <mxCell id="A5O7at4TS7hZfqdvSWaj-28" value="" style="verticalLabelPosition=bottom;html=1;verticalAlign=top;strokeWidth=1;dashed=0;shape=mxgraph.aws3d.application_server;fillColor=#ECECEC;strokeColor=#5E5E5E;aspect=fixed;rounded=1;shadow=0;comic=0;fontSize=12" vertex="1" parent="1">
          <mxGeometry x="1420" y="910" width="161.69" height="163" as="geometry" />
        </mxCell>
        <mxCell id="A5O7at4TS7hZfqdvSWaj-29" value="" style="verticalLabelPosition=bottom;html=1;verticalAlign=top;strokeWidth=1;dashed=0;shape=mxgraph.aws3d.application_server;fillColor=#ECECEC;strokeColor=#5E5E5E;aspect=fixed;rounded=1;shadow=0;comic=0;fontSize=12" vertex="1" parent="1">
          <mxGeometry x="592.66" y="698.5" width="161.69" height="163" as="geometry" />
        </mxCell>
        <mxCell id="A5O7at4TS7hZfqdvSWaj-30" value="" style="verticalLabelPosition=bottom;html=1;verticalAlign=top;strokeWidth=1;dashed=0;shape=mxgraph.aws3d.application_server;fillColor=#ECECEC;strokeColor=#5E5E5E;aspect=fixed;rounded=1;shadow=0;comic=0;fontSize=12" vertex="1" parent="1">
          <mxGeometry x="818.31" y="570" width="161.69" height="163" as="geometry" />
        </mxCell>
      </root>
    </mxGraphModel>
  </diagram>
</mxfile>
